<svg width="21" height="21" viewBox="0 0 21 21" fill="none" xmlns="http://www.w3.org/2000/svg">
<path fill-rule="evenodd" clip-rule="evenodd" d="M10.5001 3.41675C6.59425 3.41675 3.41675 6.59425 3.41675 10.5001C3.41675 14.4059 6.59425 17.5834 10.5001 17.5834C14.4059 17.5834 17.5834 14.4059 17.5834 10.5001C17.5834 6.59425 14.4059 3.41675 10.5001 3.41675M10.5001 18.8334C5.90508 18.8334 2.16675 15.0951 2.16675 10.5001C2.16675 5.90508 5.90508 2.16675 10.5001 2.16675C15.0951 2.16675 18.8334 5.90508 18.8334 10.5001C18.8334 15.0951 15.0951 18.8334 10.5001 18.8334" fill="black"/>
<path fill-rule="evenodd" clip-rule="evenodd" d="M13.3594 13.577C13.2503 13.577 13.1403 13.5487 13.0394 13.4895L9.89777 11.6153C9.70944 11.502 9.59277 11.2978 9.59277 11.0778V7.03784C9.59277 6.69284 9.87277 6.41284 10.2178 6.41284C10.5636 6.41284 10.8428 6.69284 10.8428 7.03784V10.7228L13.6803 12.4145C13.9761 12.592 14.0736 12.9753 13.8969 13.272C13.7794 13.4678 13.5719 13.577 13.3594 13.577" fill="black"/>
</svg>
